<mxfile host="app.diagrams.net" modified="2024-01-05T04:02:15.852Z" agent="Mozilla/5.0 (Windows NT 10.0; Win64; x64; rv:121.0) Gecko/20100101 Firefox/121.0" etag="4A1S6hKD8Orc43V6rcxW" version="22.1.16" type="device">
  <diagram name="PÃ¡gina-1" id="00M8zRfkyxRggsTmf3tM">
    <mxGraphModel dx="1194" dy="716" grid="1" gridSize="10" guides="1" tooltips="1" connect="1" arrows="1" fold="1" page="1" pageScale="1" pageWidth="827" pageHeight="1169" math="0" shadow="0">
      <root>
        <mxCell id="0" />
        <mxCell id="1" parent="0" />
        <mxCell id="mPJ2v4zrO77l32GKz1xa-1" value="" style="rounded=0;whiteSpace=wrap;html=1;strokeWidth=4;fillColor=#6d8764;strokeColor=#3A5431;fontColor=#ffffff;" vertex="1" parent="1">
          <mxGeometry x="120" y="200" width="370" height="40" as="geometry" />
        </mxCell>
        <mxCell id="mPJ2v4zrO77l32GKz1xa-2" value="" style="rounded=0;whiteSpace=wrap;html=1;strokeWidth=4;fillColor=#dae8fc;strokeColor=#6c8ebf;" vertex="1" parent="1">
          <mxGeometry x="120" y="240" width="120" height="40" as="geometry" />
        </mxCell>
        <mxCell id="mPJ2v4zrO77l32GKz1xa-3" value="NETWORK" style="text;html=1;strokeColor=none;fillColor=none;align=center;verticalAlign=middle;whiteSpace=wrap;rounded=0;fontSize=16;fontStyle=1" vertex="1" parent="1">
          <mxGeometry x="130" y="245" width="100" height="30" as="geometry" />
        </mxCell>
        <mxCell id="mPJ2v4zrO77l32GKz1xa-4" value="FORWARDING INFORMATION TABLE (FIB)" style="text;html=1;strokeColor=none;fillColor=none;align=center;verticalAlign=middle;whiteSpace=wrap;rounded=0;fontSize=16;fontStyle=1" vertex="1" parent="1">
          <mxGeometry x="140" y="205" width="330" height="30" as="geometry" />
        </mxCell>
        <mxCell id="mPJ2v4zrO77l32GKz1xa-5" value="" style="rounded=0;whiteSpace=wrap;html=1;strokeWidth=4;fillColor=#6d8764;strokeColor=#3A5431;fontColor=#ffffff;" vertex="1" parent="1">
          <mxGeometry x="120" y="280" width="120" height="40" as="geometry" />
        </mxCell>
        <mxCell id="mPJ2v4zrO77l32GKz1xa-7" value="" style="rounded=0;whiteSpace=wrap;html=1;strokeWidth=4;fillColor=#dae8fc;strokeColor=#6c8ebf;" vertex="1" parent="1">
          <mxGeometry x="120" y="320" width="120" height="40" as="geometry" />
        </mxCell>
        <UserObject label="192.168.11.8" link="192.168.11.8" id="mPJ2v4zrO77l32GKz1xa-8">
          <mxCell style="text;html=1;strokeColor=none;fillColor=none;align=center;verticalAlign=middle;whiteSpace=wrap;rounded=0;fontSize=16;fontStyle=1" vertex="1" parent="1">
            <mxGeometry x="130" y="325" width="100" height="30" as="geometry" />
          </mxCell>
        </UserObject>
        <mxCell id="mPJ2v4zrO77l32GKz1xa-9" value="" style="rounded=0;whiteSpace=wrap;html=1;strokeWidth=4;fillColor=#6d8764;fontColor=#ffffff;strokeColor=#3A5431;" vertex="1" parent="1">
          <mxGeometry x="120" y="360" width="120" height="40" as="geometry" />
        </mxCell>
        <mxCell id="mPJ2v4zrO77l32GKz1xa-10" value="192.168.11.12" style="text;html=1;strokeColor=none;fillColor=#6d8764;align=center;verticalAlign=middle;whiteSpace=wrap;rounded=0;fontSize=16;fontStyle=1;fontColor=#000000;" vertex="1" parent="1">
          <mxGeometry x="130" y="365" width="100" height="30" as="geometry" />
        </mxCell>
        <mxCell id="mPJ2v4zrO77l32GKz1xa-11" value="" style="rounded=0;whiteSpace=wrap;html=1;strokeWidth=4;fillColor=#dae8fc;strokeColor=#6c8ebf;" vertex="1" parent="1">
          <mxGeometry x="244" y="241" width="120" height="40" as="geometry" />
        </mxCell>
        <mxCell id="mPJ2v4zrO77l32GKz1xa-12" value="PREFIX" style="text;html=1;strokeColor=none;fillColor=none;align=center;verticalAlign=middle;whiteSpace=wrap;rounded=0;fontSize=16;fontStyle=1" vertex="1" parent="1">
          <mxGeometry x="254" y="246" width="100" height="30" as="geometry" />
        </mxCell>
        <mxCell id="mPJ2v4zrO77l32GKz1xa-13" value="" style="rounded=0;whiteSpace=wrap;html=1;strokeWidth=4;fillColor=#dae8fc;strokeColor=#6c8ebf;" vertex="1" parent="1">
          <mxGeometry x="368" y="241" width="120" height="40" as="geometry" />
        </mxCell>
        <mxCell id="mPJ2v4zrO77l32GKz1xa-14" value="ADJACENCY" style="text;html=1;strokeColor=none;fillColor=none;align=center;verticalAlign=middle;whiteSpace=wrap;rounded=0;fontSize=16;fontStyle=1" vertex="1" parent="1">
          <mxGeometry x="378" y="246" width="100" height="30" as="geometry" />
        </mxCell>
        <mxCell id="mPJ2v4zrO77l32GKz1xa-19" value="" style="rounded=0;whiteSpace=wrap;html=1;strokeWidth=4;fillColor=#6d8764;fontColor=#ffffff;strokeColor=#3A5431;" vertex="1" parent="1">
          <mxGeometry x="244" y="281" width="120" height="40" as="geometry" />
        </mxCell>
        <UserObject label="/24" link="192.168.10.0" id="mPJ2v4zrO77l32GKz1xa-20">
          <mxCell style="text;html=1;strokeColor=none;fillColor=none;align=center;verticalAlign=middle;whiteSpace=wrap;rounded=0;fontSize=16;fontStyle=1" vertex="1" parent="1">
            <mxGeometry x="254" y="286" width="100" height="30" as="geometry" />
          </mxCell>
        </UserObject>
        <mxCell id="mPJ2v4zrO77l32GKz1xa-21" value="" style="rounded=0;whiteSpace=wrap;html=1;strokeWidth=4;fillColor=#dae8fc;strokeColor=#6c8ebf;" vertex="1" parent="1">
          <mxGeometry x="244" y="321" width="120" height="40" as="geometry" />
        </mxCell>
        <mxCell id="mPJ2v4zrO77l32GKz1xa-22" value="/30" style="text;html=1;strokeColor=none;fillColor=none;align=center;verticalAlign=middle;whiteSpace=wrap;rounded=0;fontSize=16;fontStyle=1" vertex="1" parent="1">
          <mxGeometry x="254" y="326" width="100" height="30" as="geometry" />
        </mxCell>
        <mxCell id="mPJ2v4zrO77l32GKz1xa-23" value="" style="rounded=0;whiteSpace=wrap;html=1;strokeWidth=4;fillColor=#6d8764;fontColor=#ffffff;strokeColor=#3A5431;" vertex="1" parent="1">
          <mxGeometry x="244" y="361" width="120" height="40" as="geometry" />
        </mxCell>
        <mxCell id="mPJ2v4zrO77l32GKz1xa-24" value="/30" style="text;html=1;strokeColor=none;fillColor=none;align=center;verticalAlign=middle;whiteSpace=wrap;rounded=0;fontSize=16;fontStyle=1;fontColor=#000000;" vertex="1" parent="1">
          <mxGeometry x="254" y="366" width="100" height="30" as="geometry" />
        </mxCell>
        <mxCell id="mPJ2v4zrO77l32GKz1xa-25" value="&lt;font color=&quot;#000000&quot; style=&quot;font-size: 16px;&quot;&gt;&lt;b style=&quot;font-size: 16px;&quot;&gt;attached&lt;/b&gt;&lt;/font&gt;" style="rounded=0;whiteSpace=wrap;html=1;strokeWidth=4;fillColor=#6d8764;fontColor=#ffffff;strokeColor=#3A5431;fontSize=16;" vertex="1" parent="1">
          <mxGeometry x="368" y="283" width="120" height="40" as="geometry" />
        </mxCell>
        <UserObject label="192.168.11.2" link="192.168.11.2" id="mPJ2v4zrO77l32GKz1xa-27">
          <mxCell style="rounded=0;whiteSpace=wrap;html=1;strokeWidth=4;fillColor=#dae8fc;strokeColor=#6c8ebf;fontSize=16;fontStyle=1" vertex="1" parent="1">
            <mxGeometry x="368" y="322" width="120" height="40" as="geometry" />
          </mxCell>
        </UserObject>
        <mxCell id="mPJ2v4zrO77l32GKz1xa-29" value="&lt;font style=&quot;font-size: 16px;&quot; color=&quot;#000000&quot;&gt;&lt;b&gt;192.168.11.6&lt;/b&gt;&lt;/font&gt;" style="rounded=0;whiteSpace=wrap;html=1;strokeWidth=4;fillColor=#6d8764;fontColor=#ffffff;strokeColor=#3A5431;" vertex="1" parent="1">
          <mxGeometry x="368" y="361" width="120" height="40" as="geometry" />
        </mxCell>
        <UserObject label="192.168.10.0" link="192.168.10.0" id="mPJ2v4zrO77l32GKz1xa-47">
          <mxCell style="text;html=1;strokeColor=none;fillColor=none;align=center;verticalAlign=middle;whiteSpace=wrap;rounded=0;fontStyle=1;fontSize=15;" vertex="1" parent="1">
            <mxGeometry x="150" y="285" width="60" height="30" as="geometry" />
          </mxCell>
        </UserObject>
        <mxCell id="mPJ2v4zrO77l32GKz1xa-48" value="R01# SHOW IP CEF" style="text;html=1;strokeColor=none;fillColor=none;align=center;verticalAlign=middle;whiteSpace=wrap;rounded=0;fontSize=16;fontStyle=1" vertex="1" parent="1">
          <mxGeometry x="104" y="415" width="180" height="30" as="geometry" />
        </mxCell>
      </root>
    </mxGraphModel>
  </diagram>
</mxfile>
